<svg id="Capa_1" enable-background="new 0 0 512 512" height="512" viewBox="0 0 512 512" width="512" xmlns="http://www.w3.org/2000/svg"><g><g><path d="m400 56h-312c-4.418 0-8 3.582-8 8v432c0 4.418 3.582 8 8 8h312c17.673 0 32-14.327 32-32v-384c0-17.673-14.327-32-32-32z" fill="#b3e59f"/><path d="m112 480v-424h-24c-4.418 0-8 3.582-8 8v432c0 4.418 3.582 8 8 8h312c14.894 0 27.3-10.222 30.869-24z" fill="#95d6a4"/><path d="m352 56h32v448h-32z" fill="#5d5360"/><path d="m352 480h32v24h-32z" fill="#4b3f4e"/><path d="m157.313 8.219c-7.867 1.28-13.313 8.667-13.313 16.637v298.31c0 4.071.777 8.104 2.289 11.884l8.595 21.487c1.848 4.619 8.386 4.619 10.233 0l8.595-21.487c1.512-3.78 2.289-7.813 2.289-11.884v-299.166c-.001-9.718-8.664-17.412-18.688-15.781z" fill="#857e87"/><path d="m144 224h32v80h-32z" fill="#5d5360"/></g><path d="m400.291 48.097h-192.388c-4.142 0-7.5 3.358-7.5 7.5s3.358 7.5 7.5 7.5h136.791v433.903h-225.485v-433.903h17.065v258.873c0 5.056.952 10 2.83 14.694l13.739 34.347c1.139 2.847 3.896 4.714 6.963 4.714s5.825-1.867 6.963-4.715l13.739-34.347c1.878-4.694 2.83-9.638 2.83-14.694v-298.437c.001-12.975-10.556-23.532-23.531-23.532s-23.532 10.557-23.532 23.532v24.564h-48.614c-8.556 0-15.516 6.96-15.516 15.516v432.871c0 8.556 6.96 15.516 15.516 15.516h312.629c21.816 0 39.564-17.749 39.564-39.564v-384.774c.001-21.816-17.748-39.564-39.563-39.564zm-231.952 248.5h-17.064v-65.161h17.064zm-1.757 34.496-6.775 16.938-6.775-16.938c-1.166-2.915-1.757-5.984-1.757-9.123v-10.374h17.064v10.374c0 3.139-.591 6.209-1.757 9.123zm-6.775-316.093c4.705 0 8.532 3.828 8.532 8.532v192.903h-17.064v-192.903c-.001-4.704 3.827-8.532 8.532-8.532zm-72.662 481.484v-432.871c0-.285.231-.516.516-.516h16.548v433.903h-16.548c-.285 0-.516-.231-.516-.516zm337.71-24.048c0 13.545-11.02 24.564-24.564 24.564h-8.532v-385.293c0-4.142-3.358-7.5-7.5-7.5s-7.5 3.358-7.5 7.5v385.293h-17.065v-433.903h17.065v16.546c0 4.142 3.358 7.5 7.5 7.5s7.5-3.358 7.5-7.5v-16.546h8.532c13.545 0 24.564 11.02 24.564 24.564z"/></g></svg>